<?xml version="1.0" encoding="UTF-8" standalone="no"?>
<!-- Created with Inkscape (http://www.inkscape.org/) -->

<svg
   xmlns:dc="http://purl.org/dc/elements/1.1/"
   xmlns:cc="http://creativecommons.org/ns#"
   xmlns:rdf="http://www.w3.org/1999/02/22-rdf-syntax-ns#"
   xmlns:svg="http://www.w3.org/2000/svg"
   xmlns="http://www.w3.org/2000/svg"
   xmlns:sodipodi="http://sodipodi.sourceforge.net/DTD/sodipodi-0.dtd"
   xmlns:inkscape="http://www.inkscape.org/namespaces/inkscape"
   id="svg2"
   version="1.1"
   inkscape:version="0.91 r13725"
   xml:space="preserve"
   width="382.5"
   height="210"
   viewBox="0 0 382.5 210"
   sodipodi:docname="akhbaralaan logo.svg"><metadata
     id="metadata8"><rdf:RDF><cc:Work
         rdf:about=""><dc:format>image/svg+xml</dc:format><dc:type
           rdf:resource="http://purl.org/dc/dcmitype/StillImage" /><dc:title></dc:title></cc:Work></rdf:RDF></metadata><defs
     id="defs6"><clipPath
       clipPathUnits="userSpaceOnUse"
       id="clipPath16"><path
         d="M 0,168 306,168 306,0 0,0 0,168 Z"
         id="path18"
         inkscape:connector-curvature="0" /></clipPath></defs><sodipodi:namedview
     pagecolor="#ffffff"
     bordercolor="#666666"
     borderopacity="1"
     objecttolerance="10"
     gridtolerance="10"
     guidetolerance="10"
     inkscape:pageopacity="0"
     inkscape:pageshadow="2"
     inkscape:window-width="640"
     inkscape:window-height="480"
     id="namedview4"
     showgrid="false"
     inkscape:zoom="2.6952381"
     inkscape:cx="147.56184"
     inkscape:cy="105"
     inkscape:current-layer="g10" /><g
     id="g10"
     inkscape:groupmode="layer"
     inkscape:label="akhbaralaan logo"
     transform="matrix(1.25,0,0,-1.25,0,210)"><g
       id="g12"><g
         id="g14"
         clip-path="url(#clipPath16)"><g
           id="g4173"><rect
             transform="scale(1,-1)"
             y="-124.07067"
             x="15.731448"
             height="70.643112"
             width="126.74205"
             id="rect4170"
             style="fill:#ffffff;fill-opacity:1;stroke:none;stroke-opacity:1" /><path
             inkscape:connector-curvature="0"
             id="path20"
             style="fill:#00266f;fill-opacity:1;fill-rule:nonzero;stroke:none"
             d="m 122.718,112.1 15.31,0 0,-53.7 -15.31,0 0,53.7 z m -8.31,-38.35 c 0,-8.45 -6.821,-15.31 -15.35,-15.35 l -20.991,0 0,10.46 14.54,0 c 3.391,0 6.151,2.56 6.5,5.84 l 0,37.39 15.301,0 0,-38.34 z m -21.281,0.69 -15.06,0 0,29.96 15.06,0 0,-29.96 z m -16.85,43.84 c 0,0 3.27,2.05 6.16,2.05 2.911,0 4.98,-2.05 7.65,-2.05 2.681,0 4.841,2.05 4.841,2.05 l 0,-9.4 c 0,0 -2.18,-1.92 -4.841,-1.92 -2.69,0 -4.759,1.92 -7.65,1.92 -2.89,0 -6.16,-1.92 -6.16,-1.92 l 0,9.27 z M 69.587,73.9 c 0,-8.46 -6.579,-15.47 -15.1,-15.5 l -19.07,0 c -8.52,0.03 -15.1,7.04 -15.1,15.5 l 0,30.5 15.06,0 0,-29.55 c 0.351,-3.28 3.11,-5.99 6.48,-5.99 l 6.19,0 c 3.37,0 6.14,2.71 6.48,5.99 l 0,29.55 15.06,0 0,-30.5 z m -24.63,46.97 c 4.541,0 8.23,-3.53 8.23,-8.07 0,-4.55 -3.689,-8.39 -8.23,-8.39 -4.549,0 -8.239,3.69 -8.239,8.23 0,4.54 3.69,8.23 8.239,8.23 m 34.84,44.69 c -42.77,0 -77.699,-34.67 -77.699,-77.45 0,-44 33.889,-85.67 90.679,-85.67 l 0,14.58 c 36.611,5.28 64.481,32.85 64.481,71.09 0,42.78 -34.68,77.45 -77.461,77.45" /></g><path
           d="m 288.603,112.095 15.3,0 0,-53.688 -15.3,0 0,53.688 z"
           style="fill:#00266f;fill-opacity:1;fill-rule:nonzero;stroke:none"
           id="path22"
           inkscape:connector-curvature="0" /><g
           id="g24"
           transform="translate(163.539,63.0854)"><path
             d="m 0,0 1.146,0 c 3.389,0 6.156,2.557 6.496,5.84 l 0,35.513 15.305,0 0,-36.47 c 0,-8.449 -6.827,-15.308 -15.347,-15.344 l -7.599,0 L 0.001,0 0,0 Z"
             style="fill:#00266f;fill-opacity:1;fill-rule:nonzero;stroke:none"
             id="path26"
             inkscape:connector-curvature="0" /></g><g
           id="g28"
           transform="translate(255.542,124.9799)"><path
             d="m 0,0 c -4.287,0 -7.775,-3.483 -7.775,-7.763 0,-4.283 3.488,-7.767 7.775,-7.767 4.282,0 7.77,3.558 7.77,7.924 C 7.769,-3.339 4.357,0 0,0"
             style="fill:#00266f;fill-opacity:1;fill-rule:nonzero;stroke:none"
             id="path30"
             inkscape:connector-curvature="0" /></g><g
           id="g32"
           transform="translate(227.1093,53.2963)"><path
             d="m 0,0 c -4.287,0 -7.776,-3.488 -7.776,-7.771 0,-4.28 3.489,-7.762 7.776,-7.762 4.283,0 7.771,3.554 7.771,7.926 C 7.771,-3.345 4.357,0 0,0"
             style="fill:#00266f;fill-opacity:1;fill-rule:nonzero;stroke:none"
             id="path34"
             inkscape:connector-curvature="0" /></g><g
           id="g36"
           transform="translate(299.0888,129.499)"><path
             d="m 0,0 4.812,0 0,5.555 -5.826,0 c -5.901,0 -8.654,-2.191 -8.654,-6.897 0,-2.53 1.127,-4.001 1.14,-4.014 l 0.749,-0.953 -2.707,-0.006 0,-5.698 15.299,0 0,5.698 -4.812,0 c -1.399,0 -4.67,0 -4.67,3.221 C -4.67,0 -1.155,0 0,0"
             style="fill:#00266f;fill-opacity:1;fill-rule:nonzero;stroke:none"
             id="path38"
             inkscape:connector-curvature="0" /></g><g
           id="g40"
           transform="translate(264.9482,104.4379)"><path
             d="m 0,0 -21.762,0 0,-10.466 15.308,0 c 3.392,0 6.158,-2.554 6.498,-5.839 l 0,-9.318 0,-4.104 c -0.34,-3.281 -3.106,-5.837 -6.498,-5.837 l -10.286,0 -13.391,0 0,35.563 -15.305,0 0,-35.563 -2.919,0 c -3.39,0 -6.152,2.556 -6.496,5.837 l 0,37.373 -15.302,0 0,-38.33 c 0,-8.451 6.826,-15.309 15.345,-15.348 l 38.066,0 16.741,0 c 8.521,0.039 15.347,6.896 15.347,15.348 l 0,5.061 0,10.275 C 15.347,-6.898 8.521,-0.042 0,0"
             style="fill:#00266f;fill-opacity:1;fill-rule:nonzero;stroke:none"
             id="path42"
             inkscape:connector-curvature="0" /></g></g></g></g></svg>